<svg xmlns="http://www.w3.org/2000/svg" viewBox="0 0 32 32" width="32" height="32" shape-rendering="crispEdges">
  <!-- Black background -->
  <rect width="32" height="32" fill="#000000"/>
  <!-- Shield outline (pixel art) -->
  <rect x="8" y="4" width="16" height="2" fill="#00FF41"/>
  <rect x="6" y="6" width="20" height="2" fill="#00FF41"/>
  <rect x="6" y="8" width="20" height="12" fill="#00FF41"/>
  <rect x="7" y="20" width="18" height="2" fill="#00FF41"/>
  <rect x="9" y="22" width="14" height="2" fill="#00FF41"/>
  <rect x="11" y="24" width="10" height="2" fill="#00FF41"/>
  <rect x="13" y="26" width="6" height="2" fill="#00FF41"/>
  <rect x="15" y="28" width="2" height="2" fill="#00FF41"/>
  <!-- Shield interior (black) -->
  <rect x="8" y="8" width="16" height="12" fill="#000000"/>
  <rect x="9" y="20" width="14" height="2" fill="#000000"/>
  <!-- Lock icon inside shield -->
  <rect x="13" y="11" width="6" height="5" fill="#00FF41"/>
  <rect x="14" y="10" width="4" height="2" fill="#00FF41"/>
  <rect x="13" y="9" width="1" height="2" fill="#00FF41"/>
  <rect x="18" y="9" width="1" height="2" fill="#00FF41"/>
  <rect x="15" y="13" width="2" height="2" fill="#000000"/>
</svg>
